<svg xmlns="http://www.w3.org/2000/svg" viewBox="0 0 64 64" role="img" aria-labelledby="title">
  <title id="title">Orqen Studio</title>
  <defs>
    <linearGradient id="orqen-ring" x1="11" y1="11" x2="53" y2="53" gradientUnits="userSpaceOnUse">
      <stop stop-color="#63F1C5"/>
      <stop offset="0.52" stop-color="#52B7FF"/>
      <stop offset="1" stop-color="#9C7CFF"/>
    </linearGradient>
    <linearGradient id="orqen-core" x1="22" y1="18" x2="43" y2="45" gradientUnits="userSpaceOnUse">
      <stop stop-color="#F7FFFD"/>
      <stop offset="1" stop-color="#7EF0CF"/>
    </linearGradient>
  </defs>
  <rect width="64" height="64" rx="16" fill="#0D1217"/>
  <path
    d="M32 10.5c12.1 0 21.5 8.7 21.5 20.4 0 11.3-8.5 20.1-20.3 20.1-12.4 0-22.7-9.2-22.7-21.2C10.5 18.7 19.8 10.5 32 10.5Z"
    fill="none"
    stroke="url(#orqen-ring)"
    stroke-width="5.2"
    stroke-linecap="round"
  />
  <path
    d="M42.2 41.6 53 52.5"
    fill="none"
    stroke="url(#orqen-ring)"
    stroke-width="5.2"
    stroke-linecap="round"
  />
  <path
    d="M21.7 31.6c0-6.1 4.2-10.5 10.1-10.5 6.2 0 10.6 4.4 10.6 10.5 0 6.2-4.4 10.7-10.6 10.7-5.9 0-10.1-4.5-10.1-10.7Z"
    fill="#111820"
  />
  <path
    d="M26.1 32c0-3.8 2.3-6.4 5.9-6.4s6.1 2.6 6.1 6.4-2.5 6.5-6.1 6.5-5.9-2.7-5.9-6.5Z"
    fill="url(#orqen-core)"
  />
  <circle cx="49.3" cy="18.7" r="3.2" fill="#63F1C5"/>
  <circle cx="16.2" cy="45.3" r="2.4" fill="#9C7CFF"/>
</svg>
